<?xml version="1.0" encoding="utf-8"?>
<svg xmlns="http://www.w3.org/2000/svg">
<symbol id="alert" viewBox="0 0 16 16">
    <!-- Generator: Sketch 3.8.3 (29802) - http://www.bohemiancoding.com/sketch -->
    <title>alert</title>
    <desc>Created with Sketch.</desc>
    <defs/>
    <g id="Octicons" stroke="none" stroke-width="1" fill="none" fill-rule="evenodd">
        <g id="alert" fill="#000000">
            <path d="M8.865,1.51999998 C8.685,1.20999998 8.355,1.01999998 7.995,1.01999998 C7.635,1.01999998 7.305,1.20999998 7.125,1.51999998 L0.275000001,13.5 C0.0950000006,13.81 0.0950000006,14.19 0.275000001,14.5 C0.465000001,14.81 0.795000001,15 1.145,15 L14.845,15 C15.205,15 15.535,14.81 15.705,14.5 C15.875,14.19 15.885,13.81 15.715,13.5 L8.865,1.51999998 Z M8.995,13 L6.995,13 L6.995,11 L8.995,11 L8.995,13 L8.995,13 Z M8.995,9.99999998 L6.995,9.99999998 L6.995,5.99999998 L8.995,5.99999998 L8.995,9.99999998 L8.995,9.99999998 Z" id="Shape"/>
        </g>
    </g>

</symbol>
<symbol id="book" viewBox="0 0 16 16">
    <!-- Generator: Sketch 3.8.3 (29802) - http://www.bohemiancoding.com/sketch -->
    <title>book</title>
    <desc>Created with Sketch.</desc>
    <defs/>
    <g id="Octicons" stroke="none" stroke-width="1" fill="none" fill-rule="evenodd">
        <g id="book" fill="#000000">
            <path d="M3,5 L7,5 L7,6 L3,6 L3,5 L3,5 Z M3,8 L7,8 L7,7 L3,7 L3,8 L3,8 Z M3,10 L7,10 L7,9 L3,9 L3,10 L3,10 Z M14,5 L10,5 L10,6 L14,6 L14,5 L14,5 Z M14,7 L10,7 L10,8 L14,8 L14,7 L14,7 Z M14,9 L10,9 L10,10 L14,10 L14,9 L14,9 Z M16,3 L16,12 C16,12.55 15.55,13 15,13 L9.5,13 L8.5,14 L7.5,13 L2,13 C1.45,13 1,12.55 1,12 L1,3 C1,2.45 1.45,2 2,2 L7.5,2 L8.5,3 L9.5,2 L15,2 C15.55,2 16,2.45 16,3 L16,3 Z M8,3.5 L7.5,3 L2,3 L2,12 L8,12 L8,3.5 L8,3.5 Z M15,3 L9.5,3 L9,3.5 L9,12 L15,12 L15,3 L15,3 Z" id="Shape"/>
        </g>
    </g>

</symbol>
<symbol id="check" viewBox="0 0 12 16">
    <!-- Generator: Sketch 3.8.3 (29802) - http://www.bohemiancoding.com/sketch -->
    <title>check</title>
    <desc>Created with Sketch.</desc>
    <defs/>
    <g id="Octicons" stroke="none" stroke-width="1" fill="none" fill-rule="evenodd">
        <g id="check" fill="#000000">
            <polygon id="Shape" points="12 5 4 13 0 9 1.5 7.5 4 10 10.5 3.5"/>
        </g>
    </g>

</symbol>
<symbol id="code" viewBox="0 0 14 16">
    <!-- Generator: Sketch 3.8.3 (29802) - http://www.bohemiancoding.com/sketch -->
    <title>code</title>
    <desc>Created with Sketch.</desc>
    <defs/>
    <g id="Octicons" stroke="none" stroke-width="1" fill="none" fill-rule="evenodd">
        <g id="code" fill="#000000">
            <path d="M9.5,3 L8,4.5 L11.5,8 L8,11.5 L9.5,13 L14,8 L9.5,3 L9.5,3 Z M4.5,3 L0,8 L4.5,13 L6,11.5 L2.5,8 L6,4.5 L4.5,3 L4.5,3 Z" id="Shape"/>
        </g>
    </g>

</symbol>
<symbol id="comment" viewBox="0 0 16 16">
    <!-- Generator: Sketch 3.8.3 (29802) - http://www.bohemiancoding.com/sketch -->
    <title>comment</title>
    <desc>Created with Sketch.</desc>
    <defs/>
    <g id="Octicons" stroke="none" stroke-width="1" fill="none" fill-rule="evenodd">
        <g id="comment" fill="#000000">
            <path d="M14,1 L2,1 C1.45,1 1,1.45 1,2 L1,10 C1,10.55 1.45,11 2,11 L4,11 L4,14.5 L7.5,11 L14,11 C14.55,11 15,10.55 15,10 L15,2 C15,1.45 14.55,1 14,1 L14,1 Z M14,10 L7,10 L5,12 L5,10 L2,10 L2,2 L14,2 L14,10 L14,10 Z" id="Shape"/>
        </g>
    </g>

</symbol>
<symbol id="credit-card" viewBox="0 0 16 16">
    <!-- Generator: Sketch 3.8.3 (29802) - http://www.bohemiancoding.com/sketch -->
    <title>credit-card</title>
    <desc>Created with Sketch.</desc>
    <defs/>
    <g id="Octicons" stroke="none" stroke-width="1" fill="none" fill-rule="evenodd">
        <g id="credit-card" fill="#000000">
            <path d="M12,9 L2,9 L2,8 L12,8 L12,9 L12,9 Z M16,3 L16,12 C16,12.55 15.55,13 15,13 L1,13 C0.45,13 0,12.55 0,12 L0,3 C0,2.45 0.45,2 1,2 L15,2 C15.55,2 16,2.45 16,3 L16,3 Z M15,6 L1,6 L1,12 L15,12 L15,6 L15,6 Z M15,3 L1,3 L1,4 L15,4 L15,3 L15,3 Z M6,10 L2,10 L2,11 L6,11 L6,10 L6,10 Z" id="Shape"/>
        </g>
    </g>

</symbol>
<symbol id="dashboard" viewBox="0 0 16 16">
    <!-- Generator: Sketch 3.8.3 (29802) - http://www.bohemiancoding.com/sketch -->
    <title>dashboard</title>
    <desc>Created with Sketch.</desc>
    <defs/>
    <g id="Octicons" stroke="none" stroke-width="1" fill="none" fill-rule="evenodd">
        <g id="dashboard" fill="#000000">
            <path d="M9,5 L8,5 L8,4 L9,4 L9,5 L9,5 Z M13,8 L12,8 L12,9 L13,9 L13,8 L13,8 Z M6,5 L5,5 L5,6 L6,6 L6,5 L6,5 Z M5,8 L4,8 L4,9 L5,9 L5,8 L5,8 Z M16,2.5 L15.5,2 L9,7 C8.94,6.98 8,7 8,7 C7.45,7 7,7.45 7,8 L7,9 C7,9.55 7.45,10 8,10 L9,10 C9.55,10 10,9.55 10,9 L10,8.08 L16,2.5 L16,2.5 Z M14.41,6.59 C14.6,7.2 14.71,7.84 14.71,8.5 C14.71,11.92 11.93,14.7 8.51,14.7 C5.09,14.7 2.3,11.92 2.3,8.5 C2.3,5.08 5.08,2.3 8.5,2.3 C9.7,2.3 10.81,2.64 11.77,3.24 L12.71,2.3 C11.52,1.49 10.07,1 8.51,1 C4.36,1 1,4.36 1,8.5 C1,12.64 4.36,16 8.5,16 C12.64,16 16,12.64 16,8.5 C16,7.47 15.8,6.48 15.41,5.59 L14.41,6.59 L14.41,6.59 Z" id="Shape"/>
        </g>
    </g>

</symbol>
<symbol id="database" viewBox="0 0 12 16">
    <!-- Generator: Sketch 3.8.3 (29802) - http://www.bohemiancoding.com/sketch -->
    <title>database</title>
    <desc>Created with Sketch.</desc>
    <defs/>
    <g id="Octicons" stroke="none" stroke-width="1" fill="none" fill-rule="evenodd">
        <g id="database" fill="#000000">
            <path d="M6,15 C2.69,15 0,14.1 0,13 L0,11 C0,10.83 0.09,10.66 0.21,10.5 C0.88,11.36 3.21,12 6,12 C8.79,12 11.12,11.36 11.79,10.5 C11.92,10.66 12,10.83 12,11 L12,13 C12,14.1 9.31,15 6,15 L6,15 Z M6,11 C2.69,11 0,10.1 0,9 L0,7 C0,6.89 0.04,6.79 0.09,6.69 L0.09,6.69 C0.12,6.63 0.16,6.56 0.21,6.5 C0.88,7.36 3.21,8 6,8 C8.79,8 11.12,7.36 11.79,6.5 C11.84,6.56 11.88,6.63 11.91,6.69 L11.91,6.69 C11.96,6.79 12,6.9 12,7 L12,9 C12,10.1 9.31,11 6,11 L6,11 Z M6,7 C2.69,7 0,6.1 0,5 L0,4 L0,3 C0,1.9 2.69,1 6,1 C9.31,1 12,1.9 12,3 L12,4 L12,5 C12,6.1 9.31,7 6,7 L6,7 Z M6,2 C3.79,2 2,2.45 2,3 C2,3.55 3.79,4 6,4 C8.21,4 10,3.55 10,3 C10,2.45 8.21,2 6,2 L6,2 Z" id="Shape"/>
        </g>
    </g>

</symbol>
<symbol id="device-camera" viewBox="0 0 16 16">
    <!-- Generator: Sketch 3.8.3 (29802) - http://www.bohemiancoding.com/sketch -->
    <title>device-camera</title>
    <desc>Created with Sketch.</desc>
    <defs/>
    <g id="Octicons" stroke="none" stroke-width="1" fill="none" fill-rule="evenodd">
        <g id="device-camera" fill="#000000">
            <path d="M15,3 L7,3 C7,2.45 6.55,2 6,2 L2,2 C1.45,2 1,2.45 1,3 C0.45,3 0,3.45 0,4 L0,13 C0,13.55 0.45,14 1,14 L15,14 C15.55,14 16,13.55 16,13 L16,4 C16,3.45 15.55,3 15,3 L15,3 Z M6,5 L2,5 L2,4 L6,4 L6,5 L6,5 Z M10.5,12 C8.56,12 7,10.44 7,8.5 C7,6.56 8.56,5 10.5,5 C12.44,5 14,6.56 14,8.5 C14,10.44 12.44,12 10.5,12 L10.5,12 Z M13,8.5 C13,9.88 11.87,11 10.5,11 C9.13,11 8,9.87 8,8.5 C8,7.13 9.13,6 10.5,6 C11.87,6 13,7.13 13,8.5 L13,8.5 Z" id="Shape"/>
        </g>
    </g>

</symbol>
<symbol id="desktop-download" viewBox="0 0 16 16">
    <!-- Generator: Sketch 3.8.3 (29802) - http://www.bohemiancoding.com/sketch -->
    <title>desktop-download</title>
    <desc>Created with Sketch.</desc>
    <defs/>
    <g id="Octicons" stroke="none" stroke-width="1" fill="none" fill-rule="evenodd">
        <g id="desktop-download" fill="#000000">
            <path d="M4,6 L7,6 L7,0 L9,0 L9,6 L12,6 L8,10 L4,6 L4,6 Z M15,2 L11,2 L11,3 L15,3 L15,11 L1,11 L1,3 L5,3 L5,2 L1,2 C0.45,2 0,2.45 0,3 L0,12 C0,12.55 0.45,13 1,13 L6.34,13 C6.09,13.61 5.48,14.39 4,15 L12,15 C10.52,14.39 9.91,13.61 9.66,13 L15,13 C15.55,13 16,12.55 16,12 L16,3 C16,2.45 15.55,2 15,2 L15,2 Z" id="Shape"/>
        </g>
    </g>

</symbol>
<symbol id="device-desktop" viewBox="0 0 16 16">
    <!-- Generator: Sketch 3.8.3 (29802) - http://www.bohemiancoding.com/sketch -->
    <title>device-desktop</title>
    <desc>Created with Sketch.</desc>
    <defs/>
    <g id="Octicons" stroke="none" stroke-width="1" fill="none" fill-rule="evenodd">
        <g id="device-desktop" fill="#000000">
            <path d="M15,2 L1,2 C0.45,2 0,2.45 0,3 L0,12 C0,12.55 0.45,13 1,13 L6.34,13 C6.09,13.61 5.48,14.39 4,15 L12,15 C10.52,14.39 9.91,13.61 9.66,13 L15,13 C15.55,13 16,12.55 16,12 L16,3 C16,2.45 15.55,2 15,2 L15,2 Z M15,11 L1,11 L1,3 L15,3 L15,11 L15,11 Z" id="Shape"/>
        </g>
    </g>

</symbol>
<symbol id="device-mobile" viewBox="0 0 10 16">
    <!-- Generator: Sketch 3.8.3 (29802) - http://www.bohemiancoding.com/sketch -->
    <title>device-mobile</title>
    <desc>Created with Sketch.</desc>
    <defs/>
    <g id="Octicons" stroke="none" stroke-width="1" fill="none" fill-rule="evenodd">
        <g id="device-mobile" fill="#000000">
            <path d="M9,0 L1,0 C0.45,0 0,0.45 0,1 L0,15 C0,15.55 0.45,16 1,16 L9,16 C9.55,16 10,15.55 10,15 L10,1 C10,0.45 9.55,0 9,0 L9,0 Z M5,15.3 C4.28,15.3 3.7,14.72 3.7,14 C3.7,13.28 4.28,12.7 5,12.7 C5.72,12.7 6.3,13.28 6.3,14 C6.3,14.72 5.72,15.3 5,15.3 L5,15.3 Z M9,12 L1,12 L1,2 L9,2 L9,12 L9,12 Z" id="Shape"/>
        </g>
    </g>

</symbol>
<symbol id="globe" viewBox="0 0 14 16">
    <!-- Generator: Sketch 3.8.3 (29802) - http://www.bohemiancoding.com/sketch -->
    <title>globe</title>
    <desc>Created with Sketch.</desc>
    <defs/>
    <g id="Octicons" stroke="none" stroke-width="1" fill="none" fill-rule="evenodd">
        <g id="globe" fill="#000000">
            <path d="M7,1 C3.14,1 0,4.14 0,8 C0,11.86 3.14,15 7,15 C7.48,15 7.94,14.95 8.38,14.86 C8.21,14.78 8.18,14.13 8.36,13.77 C8.55,13.36 9.17,12.32 8.56,11.97 C7.95,11.62 8.12,11.47 7.75,11.06 C7.38,10.65 7.53,10.59 7.5,10.48 C7.42,10.14 7.86,9.59 7.89,9.54 C7.91,9.48 7.91,9.27 7.89,9.21 C7.89,9.13 7.62,8.99 7.55,8.98 C7.49,8.98 7.44,9.09 7.35,9.11 C7.26,9.13 6.85,8.86 6.76,8.78 C6.67,8.7 6.62,8.55 6.49,8.44 C6.36,8.31 6.35,8.41 6.16,8.33 C5.97,8.25 5.36,8.02 4.88,7.85 C4.4,7.66 4.36,7.38 4.36,7.19 C4.34,6.99 4.06,6.72 3.94,6.52 C3.8,6.32 3.78,6.05 3.74,6.11 C3.7,6.17 3.99,6.89 3.94,6.92 C3.89,6.94 3.78,6.72 3.64,6.54 C3.5,6.35 3.78,6.45 3.34,5.59 C2.9,4.73 3.48,4.29 3.51,3.84 C3.54,3.39 3.89,4.01 3.7,3.71 C3.51,3.41 3.7,2.82 3.56,2.6 C3.43,2.38 2.68,2.85 2.68,2.85 C2.7,2.63 3.37,2.27 3.84,1.93 C4.31,1.59 4.62,1.87 5,1.98 C5.39,2.11 5.41,2.07 5.28,1.93 C5.15,1.8 5.34,1.76 5.64,1.8 C5.92,1.85 6.02,2.21 6.47,2.16 C6.94,2.13 6.52,2.25 6.58,2.38 C6.64,2.51 6.52,2.49 6.2,2.68 C5.9,2.88 6.22,2.9 6.75,3.29 C7.28,3.68 7.13,3.04 7.06,2.74 C6.99,2.44 7.45,2.68 7.45,2.68 C7.78,2.9 7.72,2.7 7.95,2.76 C8.18,2.82 8.86,3.4 8.86,3.4 C8.03,3.84 8.55,3.88 8.69,3.99 C8.83,4.1 8.41,4.29 8.41,4.29 C8.24,4.12 8.22,4.31 8.11,4.37 C8,4.43 8.09,4.59 8.09,4.59 C7.53,4.68 7.65,5.28 7.67,5.42 C7.67,5.56 7.29,5.78 7.2,6 C7.11,6.2 7.45,6.64 7.26,6.66 C7.07,6.69 6.92,6 5.95,6.25 C5.65,6.33 5.01,6.66 5.36,7.33 C5.72,8.02 6.28,7.14 6.47,7.24 C6.66,7.34 6.41,7.77 6.45,7.79 C6.49,7.81 6.98,7.81 7.01,8.4 C7.04,8.99 7.78,8.93 7.93,8.95 C8.1,8.95 8.63,8.51 8.7,8.5 C8.76,8.47 9.08,8.22 9.73,8.59 C10.39,8.95 10.71,8.9 10.93,9.06 C11.15,9.22 11.01,9.53 11.21,9.64 C11.41,9.75 12.27,9.61 12.49,9.95 C12.71,10.29 11.61,12.04 11.27,12.23 C10.93,12.42 10.79,12.87 10.43,13.15 C10.07,13.43 9.62,13.79 9.16,14.06 C8.75,14.29 8.69,14.72 8.5,14.86 C11.64,14.16 13.98,11.36 13.98,8.02 C13.98,4.16 10.84,1.02 6.98,1.02 L7,1 Z M8.64,7.56 C8.55,7.59 8.36,7.78 7.86,7.48 C7.38,7.18 7.05,7.25 7,7.2 C7,7.2 6.95,7.09 7.17,7.06 C7.61,7.01 8.15,7.47 8.28,7.47 C8.41,7.47 8.47,7.34 8.69,7.42 C8.91,7.5 8.74,7.55 8.64,7.56 L8.64,7.56 Z M6.34,1.7 C6.29,1.67 6.37,1.62 6.43,1.56 C6.46,1.53 6.45,1.45 6.48,1.42 C6.59,1.31 7.09,1.17 7,1.45 C6.89,1.72 6.42,1.75 6.34,1.7 L6.34,1.7 Z M7.57,2.59 C7.38,2.57 6.99,2.54 7.05,2.45 C7.35,2.17 6.96,2.07 6.71,2.07 C6.46,2.05 6.37,1.91 6.49,1.88 C6.61,1.85 7.1,1.9 7.19,1.96 C7.27,2.02 7.71,2.21 7.74,2.34 C7.76,2.47 7.74,2.59 7.57,2.59 L7.57,2.59 Z M9.04,2.54 C8.9,2.63 8.21,2.13 8.09,2.02 C7.53,1.54 7.2,1.71 7.09,1.61 C6.98,1.51 7.01,1.42 7.2,1.27 C7.39,1.12 7.89,1.33 8.2,1.36 C8.5,1.39 8.86,1.63 8.86,1.91 C8.88,2.16 9.19,2.41 9.05,2.54 L9.04,2.54 Z" id="Shape"/>
        </g>
    </g>

</symbol>
<symbol id="info" viewBox="0 0 14 16">
    <!-- Generator: Sketch 3.8.3 (29802) - http://www.bohemiancoding.com/sketch -->
    <title>info</title>
    <desc>Created with Sketch.</desc>
    <defs/>
    <g id="Octicons" stroke="none" stroke-width="1" fill="none" fill-rule="evenodd">
        <g id="info" fill="#000000">
            <path d="M6.3,5.69 C6.11,5.5 6.02,5.27 6.02,4.99 C6.02,4.71 6.11,4.47 6.3,4.29 C6.49,4.11 6.72,4.01 7,4.01 C7.28,4.01 7.52,4.1 7.7,4.29 C7.88,4.48 7.98,4.71 7.98,4.99 C7.98,5.27 7.89,5.51 7.7,5.69 C7.51,5.87 7.28,5.99 7,5.99 C6.72,5.99 6.48,5.88 6.3,5.69 L6.3,5.69 Z M8,7.99 C7.98,7.74 7.89,7.51 7.69,7.3 C7.49,7.11 7.27,7 7,6.99 L6,6.99 C5.73,7.01 5.52,7.12 5.31,7.3 C5.11,7.5 5.01,7.74 5,7.99 L6,7.99 L6,10.99 C6.02,11.26 6.11,11.49 6.31,11.68 C6.51,11.88 6.73,11.99 7,11.99 L8,11.99 C8.27,11.99 8.48,11.88 8.69,11.68 C8.89,11.49 8.99,11.26 9,10.99 L8,10.99 L8,7.98 L8,7.99 Z M7,2.3 C3.86,2.3 1.3,4.84 1.3,7.98 C1.3,11.12 3.86,13.68 7,13.68 C10.14,13.68 12.7,11.13 12.7,7.98 C12.7,4.83 10.14,2.29 7,2.29 L7,2.3 Z M7,0.98 C10.86,0.98 14,4.12 14,7.98 C14,11.84 10.86,14.98 7,14.98 C3.14,14.98 0,11.86 0,7.98 C0,4.1 3.14,0.98 7,0.98 L7,0.98 Z" id="Shape"/>
        </g>
    </g>

</symbol>
<symbol id="issue-opened" viewBox="0 0 14 16">
    <!-- Generator: Sketch 3.8.3 (29802) - http://www.bohemiancoding.com/sketch -->
    <title>issue-opened</title>
    <desc>Created with Sketch.</desc>
    <defs/>
    <g id="Octicons" stroke="none" stroke-width="1" fill="none" fill-rule="evenodd">
        <g id="issue-opened" fill="#000000">
            <path d="M7,2.3 C10.14,2.3 12.7,4.86 12.7,8 C12.7,11.14 10.14,13.7 7,13.7 C3.86,13.7 1.3,11.14 1.3,8 C1.3,4.86 3.86,2.3 7,2.3 L7,2.3 Z M7,1 C3.14,1 0,4.14 0,8 C0,11.86 3.14,15 7,15 C10.86,15 14,11.86 14,8 C14,4.14 10.86,1 7,1 L7,1 Z M8,4 L6,4 L6,9 L8,9 L8,4 L8,4 Z M8,10 L6,10 L6,12 L8,12 L8,10 L8,10 Z" id="Shape"/>
        </g>
    </g>

</symbol>
<symbol id="key" viewBox="0 0 14 16">
    <!-- Generator: Sketch 3.8.3 (29802) - http://www.bohemiancoding.com/sketch -->
    <title>key</title>
    <desc>Created with Sketch.</desc>
    <defs/>
    <g id="Octicons" stroke="none" stroke-width="1" fill="none" fill-rule="evenodd">
        <g id="key" fill="#000000">
            <path d="M12.83,2.17 C12.08,1.42 11.14,1.03 10,1 C8.87,1.03 7.92,1.42 7.17,2.17 C6.42,2.92 6.04,3.86 6.01,5 C6.01,5.3 6.04,5.59 6.1,5.89 L0,12 L0,13 L1,14 L3,14 L4,13 L4,12 L5,12 L5,11 L6,11 L6,10 L8,10 L9.09,8.89 C9.39,8.97 9.68,9 10,9 C11.14,8.97 12.08,8.58 12.83,7.83 C13.58,7.08 13.97,6.14 14,5 C13.97,3.86 13.58,2.92 12.83,2.17 L12.83,2.17 Z M11,5.38 C10.23,5.38 9.62,4.77 9.62,4 C9.62,3.23 10.23,2.62 11,2.62 C11.77,2.62 12.38,3.23 12.38,4 C12.38,4.77 11.77,5.38 11,5.38 L11,5.38 Z" id="Shape"/>
        </g>
    </g>

</symbol>
<symbol id="law" viewBox="0 0 14 16">
    <!-- Generator: Sketch 3.8.3 (29802) - http://www.bohemiancoding.com/sketch -->
    <title>law</title>
    <desc>Created with Sketch.</desc>
    <defs/>
    <g id="Octicons" stroke="none" stroke-width="1" fill="none" fill-rule="evenodd">
        <g id="law" fill="#000000">
            <path d="M7,4 C6.17,4 5.5,3.33 5.5,2.5 C5.5,1.67 6.17,1 7,1 C7.83,1 8.5,1.67 8.5,2.5 C8.5,3.33 7.83,4 7,4 L7,4 Z M14,10 C14,11.11 13.11,12 12,12 L11,12 C9.89,12 9,11.11 9,10 L11,6 L10,6 C9.45,6 9,5.55 9,5 L8,5 L8,13 C8.42,13 9,13.45 9,14 L10,14 C10.42,14 11,14.45 11,15 L3,15 C3,14.45 3.58,14 4,14 L5,14 C5,13.45 5.58,13 6,13 L6.03,13 L6,5 L5,5 C5,5.55 4.55,6 4,6 L3,6 L5,10 C5,11.11 4.11,12 3,12 L2,12 C0.89,12 0,11.11 0,10 L2,6 L1,6 L1,5 L4,5 C4,4.45 4.45,4 5,4 L9,4 C9.55,4 10,4.45 10,5 L13,5 L13,6 L12,6 L14,10 L14,10 Z M2.5,7 L1,10 L4,10 L2.5,7 L2.5,7 Z M13,10 L11.5,7 L10,10 L13,10 L13,10 Z" id="Shape"/>
        </g>
    </g>

</symbol>
<symbol id="link" viewBox="0 0 16 16">
    <!-- Generator: Sketch 3.8.3 (29802) - http://www.bohemiancoding.com/sketch -->
    <title>link</title>
    <desc>Created with Sketch.</desc>
    <defs/>
    <g id="Octicons" stroke="none" stroke-width="1" fill="none" fill-rule="evenodd">
        <g id="link" fill="#000000">
            <path d="M4,9 L5,9 L5,10 L4,10 C2.5,10 1,8.31 1,6.5 C1,4.69 2.55,3 4,3 L8,3 C9.45,3 11,4.69 11,6.5 C11,7.91 10.09,9.22 9,9.75 L9,8.59 C9.58,8.14 10,7.32 10,6.5 C10,5.22 8.98,4 8,4 L4,4 C3.02,4 2,5.22 2,6.5 C2,7.78 3,9 4,9 L4,9 Z M13,6 L12,6 L12,7 L13,7 C14,7 15,8.22 15,9.5 C15,10.78 13.98,12 13,12 L9,12 C8.02,12 7,10.78 7,9.5 C7,8.67 7.42,7.86 8,7.41 L8,6.25 C6.91,6.78 6,8.09 6,9.5 C6,11.31 7.55,13 9,13 L13,13 C14.45,13 16,11.31 16,9.5 C16,7.69 14.5,6 13,6 L13,6 Z" id="Shape"/>
        </g>
    </g>

</symbol>
<symbol id="lock" viewBox="0 0 12 16">
    <!-- Generator: Sketch 3.8.3 (29802) - http://www.bohemiancoding.com/sketch -->
    <title>lock</title>
    <desc>Created with Sketch.</desc>
    <defs/>
    <g id="Octicons" stroke="none" stroke-width="1" fill="none" fill-rule="evenodd">
        <g id="lock" fill="#000000">
            <path d="M4,13 L3,13 L3,12 L4,12 L4,13 L4,13 Z M12,7 L12,14 C12,14.55 11.55,15 11,15 L1,15 C0.45,15 0,14.55 0,14 L0,7 C0,6.45 0.45,6 1,6 L2,6 L2,4 C2,1.8 3.8,0 6,0 C8.2,0 10,1.8 10,4 L10,6 L11,6 C11.55,6 12,6.45 12,7 L12,7 Z M3.8,6 L8.21,6 L8.21,4 C8.21,2.78 7.23,1.8 6.01,1.8 C4.79,1.8 3.81,2.78 3.81,4 L3.81,6 L3.8,6 Z M11,7 L2,7 L2,14 L11,14 L11,7 L11,7 Z M4,8 L3,8 L3,9 L4,9 L4,8 L4,8 Z M4,10 L3,10 L3,11 L4,11 L4,10 L4,10 Z" id="Shape"/>
        </g>
    </g>

</symbol>
<symbol id="mark-github" viewBox="0 0 16 16">
    <!-- Generator: Sketch 3.8.3 (29802) - http://www.bohemiancoding.com/sketch -->
    <title>mark-github</title>
    <desc>Created with Sketch.</desc>
    <defs/>
    <g id="Octicons" stroke="none" stroke-width="1" fill="none" fill-rule="evenodd">
        <g id="mark-github" fill="#000000">
            <path d="M8,0 C3.58,0 0,3.58 0,8 C0,11.54 2.29,14.53 5.47,15.59 C5.87,15.66 6.02,15.42 6.02,15.21 C6.02,15.02 6.01,14.39 6.01,13.72 C4,14.09 3.48,13.23 3.32,12.78 C3.23,12.55 2.84,11.84 2.5,11.65 C2.22,11.5 1.82,11.13 2.49,11.12 C3.12,11.11 3.57,11.7 3.72,11.94 C4.44,13.15 5.59,12.81 6.05,12.6 C6.12,12.08 6.33,11.73 6.56,11.53 C4.78,11.33 2.92,10.64 2.92,7.58 C2.92,6.71 3.23,5.99 3.74,5.43 C3.66,5.23 3.38,4.41 3.82,3.31 C3.82,3.31 4.49,3.1 6.02,4.13 C6.66,3.95 7.34,3.86 8.02,3.86 C8.7,3.86 9.38,3.95 10.02,4.13 C11.55,3.09 12.22,3.31 12.22,3.31 C12.66,4.41 12.38,5.23 12.3,5.43 C12.81,5.99 13.12,6.7 13.12,7.58 C13.12,10.65 11.25,11.33 9.47,11.53 C9.76,11.78 10.01,12.26 10.01,13.01 C10.01,14.08 10,14.94 10,15.21 C10,15.42 10.15,15.67 10.55,15.59 C13.71,14.53 16,11.53 16,8 C16,3.58 12.42,0 8,0 L8,0 Z" id="Shape"/>
        </g>
    </g>

</symbol>
<symbol id="mail-read" viewBox="0 0 14 16">
    <!-- Generator: Sketch 3.8.3 (29802) - http://www.bohemiancoding.com/sketch -->
    <title>mail-read</title>
    <desc>Created with Sketch.</desc>
    <defs/>
    <g id="Octicons" stroke="none" stroke-width="1" fill="none" fill-rule="evenodd">
        <g id="mail-read" fill="#000000">
            <path d="M6,5 L4,5 L4,4 L6,4 L6,5 L6,5 Z M9,6 L4,6 L4,7 L9,7 L9,6 L9,6 Z M14,5.52 L14,14 C14,14.55 13.55,15 13,15 L1,15 C0.45,15 0,14.55 0,14 L0,5.52 C0,5.19 0.16,4.89 0.42,4.71 L2,3.58 L2,3 C2,2.45 2.45,2 3,2 L4.2,2 L7,0 L9.8,2 L11,2 C11.55,2 12,2.45 12,3 L12,3.58 L13.58,4.71 C13.85,4.9 14,5.19 14,5.52 L14,5.52 Z M3,7.5 L7,10 L11,7.5 L11,3 L3,3 L3,7.5 L3,7.5 Z M1,13.5 L5.5,10.5 L1,7.5 L1,13.5 L1,13.5 Z M12,14 L7,11 L2,14 L12,14 L12,14 Z M13,7.5 L8.5,10.5 L13,13.5 L13,7.5 L13,7.5 Z" id="Shape"/>
        </g>
    </g>

</symbol>
<symbol id="organization" viewBox="0 0 16 16">
    <!-- Generator: Sketch 3.8.3 (29802) - http://www.bohemiancoding.com/sketch -->
    <title>organization</title>
    <desc>Created with Sketch.</desc>
    <defs/>
    <g id="Octicons" stroke="none" stroke-width="1" fill="none" fill-rule="evenodd">
        <g id="organization" fill="#221F20">
            <path d="M16,12.999 C16,13.438 15.55,13.999 15,13.999 L7.995,13.999 C7.456,13.999 7.001,13.552 7,13 L1,13 C0.46,13 0,12.439 0,12 C0,9.366 3,8 3,8 C3,8 3.229,7.591 3,7 C2.159,6.379 1.942,6.41 2,4 C2.058,1.581 3.367,1 4.5,1 C5.633,1 6.942,1.58 7,4 C7.058,6.41 6.841,6.379 6,7 C5.771,7.59 6,8 6,8 C6,8 7.549,8.711 8.42,10.088 C9.196,9.369 10,8.999 10,8.999 C10,8.999 10.229,8.59 10,7.999 C9.159,7.379 8.942,7.409 9,4.999 C9.058,2.58 10.367,1.999 11.5,1.999 C12.633,1.999 13.937,2.58 13.995,4.999 C14.054,7.409 13.837,7.379 12.995,7.999 C12.766,8.589 12.995,8.999 12.995,8.999 C12.995,8.999 16,10.365 16,12.999" id="Shape"/>
        </g>
    </g>

</symbol>
<symbol id="person" viewBox="0 0 12 16">
    <!-- Generator: Sketch 3.8.3 (29802) - http://www.bohemiancoding.com/sketch -->
    <title>person</title>
    <desc>Created with Sketch.</desc>
    <defs/>
    <g id="Octicons" stroke="none" stroke-width="1" fill="none" fill-rule="evenodd">
        <g id="person" fill="#000000">
            <path d="M12,14.002 C12,14.553 11.553,15 11.002,15 L1.001,15 C0.448,15 0,14.552 0,13.999 L0,13 C0,10.367 4,9 4,9 C4,9 4.229,8.591 4,8 C3.159,7.38 3.056,6.41 3,4 C3.173,1.587 4.867,1 6,1 C7.133,1 8.827,1.586 9,4 C8.944,6.41 8.841,7.38 8,8 C7.771,8.59 8,9 8,9 C8,9 12,10.367 12,13 L12,14.002 Z" id="Shape"/>
        </g>
    </g>

</symbol>
<symbol id="question" viewBox="0 0 14 16">
    <!-- Generator: Sketch 3.8.3 (29802) - http://www.bohemiancoding.com/sketch -->
    <title>question</title>
    <desc>Created with Sketch.</desc>
    <defs/>
    <g id="Octicons" stroke="none" stroke-width="1" fill="none" fill-rule="evenodd">
        <g id="question" fill="#000000">
            <path d="M6,10 L8,10 L8,12 L6,12 L6,10 L6,10 Z M10,6.5 C10,8.64 8,9 8,9 L6,9 C6,8.45 6.45,8 7,8 L7.5,8 C7.78,8 8,7.78 8,7.5 L8,6.5 C8,6.22 7.78,6 7.5,6 L6.5,6 C6.22,6 6,6.22 6,6.5 L6,7 L4,7 C4,5.5 5.5,4 7,4 C8.5,4 10,5 10,6.5 L10,6.5 Z M7,2.3 C10.14,2.3 12.7,4.86 12.7,8 C12.7,11.14 10.14,13.7 7,13.7 C3.86,13.7 1.3,11.14 1.3,8 C1.3,4.86 3.86,2.3 7,2.3 L7,2.3 Z M7,1 C3.14,1 0,4.14 0,8 C0,11.86 3.14,15 7,15 C10.86,15 14,11.86 14,8 C14,4.14 10.86,1 7,1 L7,1 Z" id="Shape"/>
        </g>
    </g>

</symbol>
<symbol id="search" viewBox="0 0 16 16">
    <!-- Generator: Sketch 3.8.3 (29802) - http://www.bohemiancoding.com/sketch -->
    <title>search</title>
    <desc>Created with Sketch.</desc>
    <defs/>
    <g id="Octicons" stroke="none" stroke-width="1" fill="none" fill-rule="evenodd">
        <g id="search" fill="#000000">
            <path d="M15.7,13.3 L11.89,9.47 C12.59,8.49 13,7.3 13,6 C13,2.69 10.31,0 7,0 C3.69,0 1,2.69 1,6 C1,9.31 3.69,12 7,12 C8.3,12 9.48,11.59 10.47,10.89 L14.3,14.7 C14.49,14.9 14.75,15 15,15 C15.25,15 15.52,14.91 15.7,14.7 C16.09,14.31 16.09,13.68 15.7,13.29 L15.7,13.3 Z M7,10.7 C4.41,10.7 2.3,8.59 2.3,6 C2.3,3.41 4.41,1.3 7,1.3 C9.59,1.3 11.7,3.41 11.7,6 C11.7,8.59 9.59,10.7 7,10.7 L7,10.7 Z" id="Shape"/>
        </g>
    </g>

</symbol>
<symbol id="server" viewBox="0 0 12 16">
    <!-- Generator: Sketch 3.8.3 (29802) - http://www.bohemiancoding.com/sketch -->
    <title>server</title>
    <desc>Created with Sketch.</desc>
    <defs/>
    <g id="Octicons" stroke="none" stroke-width="1" fill="none" fill-rule="evenodd">
        <g id="server" fill="#000000">
            <path d="M11,6 L1,6 C0.45,6 0,6.45 0,7 L0,9 C0,9.55 0.45,10 1,10 L11,10 C11.55,10 12,9.55 12,9 L12,7 C12,6.45 11.55,6 11,6 L11,6 Z M2,9 L1,9 L1,7 L2,7 L2,9 L2,9 Z M4,9 L3,9 L3,7 L4,7 L4,9 L4,9 Z M6,9 L5,9 L5,7 L6,7 L6,9 L6,9 Z M8,9 L7,9 L7,7 L8,7 L8,9 L8,9 Z M11,1 L1,1 C0.45,1 0,1.45 0,2 L0,4 C0,4.55 0.45,5 1,5 L11,5 C11.55,5 12,4.55 12,4 L12,2 C12,1.45 11.55,1 11,1 L11,1 Z M2,4 L1,4 L1,2 L2,2 L2,4 L2,4 Z M4,4 L3,4 L3,2 L4,2 L4,4 L4,4 Z M6,4 L5,4 L5,2 L6,2 L6,4 L6,4 Z M8,4 L7,4 L7,2 L8,2 L8,4 L8,4 Z M11,3 L10,3 L10,2 L11,2 L11,3 L11,3 Z M11,11 L1,11 C0.45,11 0,11.45 0,12 L0,14 C0,14.55 0.45,15 1,15 L11,15 C11.55,15 12,14.55 12,14 L12,12 C12,11.45 11.55,11 11,11 L11,11 Z M2,14 L1,14 L1,12 L2,12 L2,14 L2,14 Z M4,14 L3,14 L3,12 L4,12 L4,14 L4,14 Z M6,14 L5,14 L5,12 L6,12 L6,14 L6,14 Z M8,14 L7,14 L7,12 L8,12 L8,14 L8,14 Z" id="Shape"/>
        </g>
    </g>

</symbol>
<symbol id="settings" viewBox="0 0 16 16">
    <!-- Generator: Sketch 3.8.3 (29802) - http://www.bohemiancoding.com/sketch -->
    <title>settings</title>
    <desc>Created with Sketch.</desc>
    <defs/>
    <g id="Octicons" stroke="none" stroke-width="1" fill="none" fill-rule="evenodd">
        <g id="settings" fill="#000000">
            <path d="M4,7 L3,7 L3,2 L4,2 L4,7 L4,7 Z M3,14 L4,14 L4,11 L3,11 L3,14 L3,14 Z M8,14 L9,14 L9,8 L8,8 L8,14 L8,14 Z M13,14 L14,14 L14,12 L13,12 L13,14 L13,14 Z M14,2 L13,2 L13,8 L14,8 L14,2 L14,2 Z M9,2 L8,2 L8,4 L9,4 L9,2 L9,2 Z M5,8 L2,8 C1.45,8 1,8.45 1,9 C1,9.55 1.45,10 2,10 L5,10 C5.55,10 6,9.55 6,9 C6,8.45 5.55,8 5,8 L5,8 Z M10,5 L7,5 C6.45,5 6,5.45 6,6 C6,6.55 6.45,7 7,7 L10,7 C10.55,7 11,6.55 11,6 C11,5.45 10.55,5 10,5 L10,5 Z M15,9 L12,9 C11.45,9 11,9.45 11,10 C11,10.55 11.45,11 12,11 L15,11 C15.55,11 16,10.55 16,10 C16,9.45 15.55,9 15,9 L15,9 Z" id="Shape"/>
        </g>
    </g>

</symbol>
<symbol id="shield" viewBox="0 0 14 16">
    <!-- Generator: Sketch 3.8.3 (29802) - http://www.bohemiancoding.com/sketch -->
    <title>shield</title>
    <desc>Created with Sketch.</desc>
    <defs/>
    <g id="Octicons" stroke="none" stroke-width="1" fill="none" fill-rule="evenodd">
        <g id="shield" fill="#000000">
            <path d="M7,0 L0,2 L0,8.02 C0,12.69 5.31,16 7,16 C8.69,16 14,12.69 14,8.02 L14,2 L7,0 L7,0 Z M5,11 L6.14,8.2 C6.19,7.97 6.08,7.73 5.89,7.61 C5.33,7.25 5,6.66 5,6 C5,4.91 5.89,4 6.98,4 C8.06,4 9,4.91 9,6 C9,6.66 8.67,7.25 8.11,7.61 C7.92,7.74 7.81,7.97 7.86,8.2 L9,11 L5,11 L5,11 Z" id="Shape"/>
        </g>
    </g>

</symbol>
<symbol id="sign-in" viewBox="0 0 14 16">
    <!-- Generator: Sketch 3.8.3 (29802) - http://www.bohemiancoding.com/sketch -->
    <title>sign-in</title>
    <desc>Created with Sketch.</desc>
    <defs/>
    <g id="Octicons" stroke="none" stroke-width="1" fill="none" fill-rule="evenodd">
        <g id="sign-in" fill="#000000">
            <path d="M7,6.75 L7,12 L11,12 L11,8 L12,8 L12,12 C12,12.55 11.55,13 11,13 L7,13 L7,16 L1.55,13.28 C1.22,13.11 1,12.76 1,12.37 L1,1 C1,0.45 1.45,0 2,0 L11,0 C11.55,0 12,0.45 12,1 L12,4 L11,4 L11,1 L3,1 L7,3 L7,5.25 L10,3 L10,5 L14,5 L14,7 L10,7 L10,9 L7,6.75 L7,6.75 Z" id="Shape"/>
        </g>
    </g>

</symbol>
<symbol id="sign-out" viewBox="0 0 16 16">
    <!-- Generator: Sketch 3.8.3 (29802) - http://www.bohemiancoding.com/sketch -->
    <title>sign-out</title>
    <desc>Created with Sketch.</desc>
    <defs/>
    <g id="Octicons" stroke="none" stroke-width="1" fill="none" fill-rule="evenodd">
        <g id="sign-out" fill="#000000">
            <path d="M12,9 L12,7 L8,7 L8,5 L12,5 L12,3 L16,6 L12,9 L12,9 Z M10,12 L6,12 L6,3 L2,1 L10,1 L10,4 L11,4 L11,1 C11,0.45 10.55,0 10,0 L1,0 C0.45,0 0,0.45 0,1 L0,12.38 C0,12.77 0.22,13.11 0.55,13.29 L6,16.01 L6,13 L10,13 C10.55,13 11,12.55 11,12 L11,8 L10,8 L10,12 L10,12 Z" id="Shape"/>
        </g>
    </g>

</symbol>
<symbol id="smiley" viewBox="0 0 16 16">
    <!-- Generator: Sketch 3.8.3 (29802) - http://www.bohemiancoding.com/sketch -->
    <title>smiley</title>
    <desc>Created with Sketch.</desc>
    <defs/>
    <g id="Octicons" stroke="none" stroke-width="1" fill="none" fill-rule="evenodd">
        <g id="smiley" fill="#000000">
            <path d="M8,0 C3.58,0 0,3.58 0,8 C0,12.42 3.58,16 8,16 C12.42,16 16,12.42 16,8 C16,3.58 12.42,0 8,0 L8,0 Z M12.81,12.81 C12.18,13.44 11.45,13.92 10.64,14.26 C9.81,14.62 8.92,14.79 8,14.79 C7.08,14.79 6.19,14.62 5.36,14.26 C4.55,13.92 3.81,13.43 3.19,12.81 C2.57,12.19 2.08,11.45 1.74,10.64 C1.38,9.81 1.21,8.92 1.21,8 C1.21,7.08 1.38,6.19 1.74,5.36 C2.08,4.55 2.57,3.81 3.19,3.19 C3.81,2.57 4.55,2.08 5.36,1.74 C6.19,1.38 7.08,1.21 8,1.21 C8.92,1.21 9.81,1.38 10.64,1.74 C11.45,2.08 12.19,2.57 12.81,3.19 C13.43,3.81 13.92,4.55 14.26,5.36 C14.62,6.19 14.79,7.08 14.79,8 C14.79,8.92 14.62,9.81 14.26,10.64 C13.92,11.45 13.43,12.19 12.81,12.81 L12.81,12.81 Z M4,6.8 L4,6.21 C4,5.55 4.53,5.02 5.2,5.02 L5.79,5.02 C6.45,5.02 6.98,5.55 6.98,6.21 L6.98,6.8 C6.98,7.47 6.45,8 5.79,8 L5.2,8 C4.53,8 4,7.47 4,6.8 L4,6.8 Z M9,6.8 L9,6.21 C9,5.55 9.53,5.02 10.2,5.02 L10.79,5.02 C11.45,5.02 11.98,5.55 11.98,6.21 L11.98,6.8 C11.98,7.47 11.45,8 10.79,8 L10.2,8 C9.53,8 9,7.47 9,6.8 L9,6.8 Z M13,10 C12.28,11.88 10.09,13 8,13 C5.91,13 3.72,11.87 3,10 C2.86,9.61 3.23,9 3.66,9 L12.25,9 C12.66,9 13.14,9.61 13,10 L13,10 Z" id="Shape"/>
        </g>
    </g>

</symbol>
<symbol id="sun" viewBox="0 0 90 90">
<defs>
<linearGradient id="k" y2="42.306" gradientUnits="userSpaceOnUse" x2="225.9" gradientTransform="translate(-99.413)" y1="90" x1="68.946">
<stop stop-color="#d0e6ee" stop-opacity=".11" offset="0"/>
<stop stop-color="#9dd4ec" offset=".089"/>
<stop stop-color="#3fc1e8" offset="1"/>
</linearGradient>
<linearGradient id="j" y2=".58255" gradientUnits="userSpaceOnUse" x2="157.26" gradientTransform="translate(-99.413)" y1="90" x1="158">
<stop stop-color="#f1d12d" offset="0"/>
<stop stop-color="#e93d00" offset="1"/>
</linearGradient>
<linearGradient id="i" y2="2.8" gradientUnits="userSpaceOnUse" x2="230" gradientTransform="translate(-99.413)" y1="3" x1="14">
<stop stop-color="#e93d00" stop-opacity="0" offset="0"/>
<stop stop-color="#e93d00" offset=".05"/>
<stop stop-color="#e93d00" offset="1"/>
</linearGradient>
<linearGradient id="h" y2="10" gradientUnits="userSpaceOnUse" x2="230" gradientTransform="translate(-99.413)" y1="9.9" x1="18">
<stop stop-color="#ea5800" stop-opacity="0" offset="0"/>
<stop stop-color="#ea5800" offset=".056"/>
<stop stop-color="#ea5800" offset="1"/>
</linearGradient>
<linearGradient id="g" y2="17" gradientUnits="userSpaceOnUse" x2="230" gradientTransform="translate(-99.413)" y1="17" x1="22">
<stop stop-color="#e95700" stop-opacity="0" offset="0"/>
<stop stop-color="#e95700" offset=".058"/>
<stop stop-color="#e95700" offset="1"/>
</linearGradient>
<linearGradient id="f" y2="24" gradientUnits="userSpaceOnUse" x2="230" gradientTransform="translate(-99.413)" y1="24" x1="28">
<stop stop-color="#ed7606" stop-opacity="0" offset="0"/>
<stop stop-color="#ed7606" offset=".061"/>
<stop stop-color="#ed7606" offset="1"/>
</linearGradient>
<linearGradient id="e" y2="30" gradientUnits="userSpaceOnUse" x2="230" gradientTransform="translate(-99.413)" y1="30" x1="31">
<stop stop-color="#ed7612" stop-opacity="0" offset="0"/>
<stop stop-color="#ed7612" offset=".064"/>
<stop stop-color="#ed7612" offset="1"/>
</linearGradient>
<linearGradient id="d" y2="38" gradientUnits="userSpaceOnUse" x2="230" gradientTransform="translate(-99.413)" y1="38" x1="36">
<stop stop-color="#ed7506" stop-opacity="0" offset="0"/>
<stop stop-color="#ed7506" stop-opacity=".5" offset=".067"/>
<stop stop-color="#ed7506" offset="1"/>
</linearGradient>
<linearGradient id="c" y2="48" gradientUnits="userSpaceOnUse" x2="230" gradientTransform="translate(-99.413)" y1="48" x1="43">
<stop stop-color="#ee9604" stop-opacity="0" offset="0"/>
<stop stop-color="#ee9604" offset=".072"/>
<stop stop-color="#ee9604" offset="1"/>
</linearGradient>
<linearGradient id="b" y2="57" gradientUnits="userSpaceOnUse" x2="230" gradientTransform="translate(-99.413)" y1="57" x1="49">
<stop stop-color="#ee9707" stop-opacity="0" offset="0"/>
<stop stop-color="#ee9707" offset=".075"/>
<stop stop-color="#ee9707" offset="1"/>
</linearGradient>
<linearGradient id="a" y2="71" gradientUnits="userSpaceOnUse" x2="230" gradientTransform="translate(-99.413)" y1="71" x1="58">
<stop stop-color="#f5cb00" stop-opacity="0" offset="0"/>
<stop stop-color="#f5cb00" stop-opacity=".5" offset=".082"/>
<stop stop-color="#f5cb00" offset="1"/>
</linearGradient>
</defs>
<rect height="5.9" width="230.63" y="0" x="-104.14" fill="url(#i)"/>
<rect height="3.9794" width="230.68" y="8.3" x="-104.19" fill="url(#h)"/>
<rect height="4.1" width="230.71" y="14.689" x="-104.22" fill="url(#g)"/>
<rect height="3.6" width="231.46" y="21.876" x="-104.97" fill="url(#f)"/>
<rect height="2.2" width="230.45" y="29.124" x="-103.96" fill="url(#e)"/>
<rect height="2.4" width="230.45" y="36.938" x="-103.96" fill="url(#d)"/>
<rect height="2.3103" width="230.45" y="47.124" x="-103.96" fill="url(#c)"/>
<rect height="1.7998" width="230.5" y="55.813" x="-104.01" fill="url(#b)"/>
<rect opacity="0.96" height="1.7" width="230" y="70" x="-103.51" fill="url(#a)"/>
<path fill="url(#j)" d="m21.299 89.065a52 52 0 0 1 2.9476 -71.259 52 52 0 0 1 71.308 -1.2934 52 52 0 0 1 5.5298 71.105"/>
<path fill="url(#k)" d="m-30.663 74.311 11 3.8 26-7.1 9.2-1.1 8-11 21 12 13-15 19-15 10 4.6 7.1-.063 13 13 10 .44 9.85-5.8v37.223h-156.95z"/>

</symbol>
<symbol id="three-bars" viewBox="0 0 12 16">
    <!-- Generator: Sketch 3.8.3 (29802) - http://www.bohemiancoding.com/sketch -->
    <title>three-bars</title>
    <desc>Created with Sketch.</desc>
    <defs/>
    <g id="Octicons" stroke="none" stroke-width="1" fill="none" fill-rule="evenodd">
        <g id="three-bars" fill="#000000">
            <path d="M11.41,9 L0.59,9 C0,9 0,8.59 0,8 C0,7.41 0,7 0.59,7 L11.4,7 C11.99,7 11.99,7.41 11.99,8 C11.99,8.59 11.99,9 11.4,9 L11.41,9 Z M11.41,5 L0.59,5 C0,5 0,4.59 0,4 C0,3.41 0,3 0.59,3 L11.4,3 C11.99,3 11.99,3.41 11.99,4 C11.99,4.59 11.99,5 11.4,5 L11.41,5 Z M0.59,11 L11.4,11 C11.99,11 11.99,11.41 11.99,12 C11.99,12.59 11.99,13 11.4,13 L0.59,13 C0,13 0,12.59 0,12 C0,11.41 0,11 0.59,11 L0.59,11 Z" id="Shape"/>
        </g>
    </g>

</symbol>
<symbol id="tools" viewBox="0 0 16 16">
    <!-- Generator: Sketch 3.8.3 (29802) - http://www.bohemiancoding.com/sketch -->
    <title>tools</title>
    <desc>Created with Sketch.</desc>
    <defs/>
    <g id="Octicons" stroke="none" stroke-width="1" fill="none" fill-rule="evenodd">
        <g id="tools" fill="#000000">
            <path d="M4.48,7.27 C4.74,7.53 5.76,8.6 5.76,8.6 L6.32,8.02 L5.44,7.11 L7.13,5.31 C7.13,5.31 6.37,4.57 6.7,4.86 C7.02,3.67 6.73,2.35 5.83,1.42 C4.93,0.5 3.66,0.2 2.52,0.51 L4.45,2.51 L3.94,4.47 L2.05,4.99 L0.12,2.99 C-0.19,4.17 0.1,5.48 1,6.4 C1.94,7.38 3.29,7.66 4.48,7.27 L4.48,7.27 Z M10.92,9.21 L8.59,11.51 L12.43,15.49 C12.74,15.82 13.16,15.98 13.57,15.98 C13.98,15.98 14.39,15.82 14.71,15.49 C15.34,14.84 15.34,13.79 14.71,13.14 L10.92,9.21 L10.92,9.21 Z M16,2.53 L13.55,0 L6.33,7.46 L7.21,8.37 L2.9,12.83 L1.91,13.36 L0.52,15.63 L0.87,16 L3.07,14.56 L3.58,13.54 L7.9,9.08 L8.78,9.99 L16,2.53 L16,2.53 Z" id="Shape"/>
        </g>
    </g>

</symbol>
<symbol id="trashcan" viewBox="0 0 12 16">
    <!-- Generator: Sketch 3.8.3 (29802) - http://www.bohemiancoding.com/sketch -->
    <title>trashcan</title>
    <desc>Created with Sketch.</desc>
    <defs/>
    <g id="Octicons" stroke="none" stroke-width="1" fill="none" fill-rule="evenodd">
        <g id="trashcan" fill="#000000">
            <path d="M11,2 L9,2 C9,1.45 8.55,1 8,1 L5,1 C4.45,1 4,1.45 4,2 L2,2 C1.45,2 1,2.45 1,3 L1,4 C1,4.55 1.45,5 2,5 L2,14 C2,14.55 2.45,15 3,15 L10,15 C10.55,15 11,14.55 11,14 L11,5 C11.55,5 12,4.55 12,4 L12,3 C12,2.45 11.55,2 11,2 L11,2 Z M10,14 L3,14 L3,5 L4,5 L4,13 L5,13 L5,5 L6,5 L6,13 L7,13 L7,5 L8,5 L8,13 L9,13 L9,5 L10,5 L10,14 L10,14 Z M11,4 L2,4 L2,3 L11,3 L11,4 L11,4 Z" id="Shape"/>
        </g>
    </g>

</symbol>
<symbol id="x" viewBox="0 0 12 16">
    <!-- Generator: Sketch 3.8.3 (29802) - http://www.bohemiancoding.com/sketch -->
    <title>x</title>
    <desc>Created with Sketch.</desc>
    <defs/>
    <g id="Octicons" stroke="none" stroke-width="1" fill="none" fill-rule="evenodd">
        <g id="x" fill="#000000">
            <polygon id="Shape" points="7.48 8 11.23 11.75 9.75 13.23 6 9.48 2.25 13.23 0.77 11.75 4.52 8 0.77 4.25 2.25 2.77 6 6.52 9.75 2.77 11.23 4.25"/>
        </g>
    </g>

</symbol></svg>